<svg fill="#f5ecd5" xmlns="http://www.w3.org/2000/svg"  viewBox="0 0 24 24" width="24px" height="24px"><path d="M 11.166016 3 L 8.8613281 12.375 L 8.4921875 11 L 4.7226562 11 C 4.3763868 10.404366 3.7389464 10 3 10 C 1.895 10 1 10.895 1 12 C 1 13.105 1.895 14 3 14 C 3.7389464 14 4.3763868 13.595634 4.7226562 13 L 6.9589844 13 L 8.0332031 17 L 9.7832031 17 L 11.800781 8.7929688 L 13.587891 20 L 15.353516 20 L 16.8125 13 L 19.277344 13 C 19.623613 13.595634 20.261054 14 21 14 C 22.105 14 23 13.105 23 12 C 23 10.895 22.105 10 21 10 C 20.261054 10 19.623613 10.404366 19.277344 11 L 15.1875 11 L 14.615234 13.742188 L 12.902344 3 L 11.166016 3 z"/></svg>