<?xml version="1.0"?><svg fill="#f5ecd5" xmlns="http://www.w3.org/2000/svg"  viewBox="0 0 24 24" width="24px" height="24px">    <path d="M 12 0.44921875 L 11.236328 1.3554688 C 11.236328 1.3554688 9.4511364 3.4704202 7.6640625 6.1894531 C 5.8769886 8.9084861 4 12.15394 4 15 C 4 19.428528 7.5714715 23 12 23 C 16.428528 23 20 19.428528 20 15 C 20 12.15394 18.123011 8.9084861 16.335938 6.1894531 C 14.548864 3.4704202 12.763672 1.3554687 12.763672 1.3554688 L 12 0.44921875 z M 12 3.6796875 C 12.528081 4.3285054 13.33296 5.2618371 14.664062 7.2871094 C 16.37699 9.8933264 18 13.14706 18 15 C 18 18.367472 15.367472 21 12 21 C 8.6325285 21 6 18.367472 6 15 C 6 13.14706 7.6230114 9.8933264 9.3359375 7.2871094 C 10.66704 5.2618371 11.471919 4.3285054 12 3.6796875 z M 9 13 L 9 15 L 15 15 L 15 13 L 9 13 z"/></svg>