<?xml version="1.0" encoding="UTF-8"?>
<svg id="_22_Profile_search_" data-name="22 Profile search
" xmlns="http://www.w3.org/2000/svg" viewBox="0 0 512 512">
  <defs>
    <style>
      .cls-1 {
        fill: #f5ecd5;
        stroke-width: 0px;
      }
    </style>
  </defs>
  <path class="cls-1" d="M456,368c0-48.6-39.4-88-88-88s-88,39.4-88,88,39.4,88,88,88,88-39.4,88-88ZM368,432c-35.29,0-64-28.71-64-64s28.71-64,64-64,64,28.71,64,64-28.71,64-64,64Z"/>
  <path class="cls-1" d="M368,320c-26.47,0-48,21.53-48,48s21.53,48,48,48,48-21.53,48-48-21.53-48-48-48Z"/>
  <path class="cls-1" d="M509.66,482.34l-55.77-55.77c-7.33,10.71-16.6,19.99-27.31,27.31l55.77,55.77c1.56,1.56,3.61,2.34,5.66,2.34s4.09-.78,5.66-2.34l16-16c3.12-3.12,3.12-8.19,0-11.31Z"/>
  <path class="cls-1" d="M264,208c0-30.88-25.12-56-56-56s-56,25.12-56,56,25.12,56,56,56,56-25.12,56-56Z"/>
  <path class="cls-1" d="M366.38,264.02c6.22-17.53,9.62-36.38,9.62-56.02,0-92.64-75.36-168-168-168S40,115.36,40,208c0,46.29,18.82,88.27,49.22,118.69,19.04-27.72,47.52-48.48,80.76-57.59-20.38-12.73-33.98-35.35-33.98-61.1,0-39.7,32.3-72,72-72s72,32.3,72,72c0,25.75-13.6,48.38-33.98,61.1,18.11,4.96,34.8,13.38,49.32,24.5,18.39-17.96,43.41-29.16,71.04-29.58Z"/>
  <path class="cls-1" d="M101.17,337.57c29.06,24,66.29,38.43,106.83,38.43,19.64,0,38.49-3.39,56.02-9.61.35-22.77,8-43.76,20.74-60.74-21.4-16.09-47.98-25.65-76.76-25.65-44.58,0-83.9,22.91-106.83,57.57Z"/>
  <path class="cls-1" d="M208,392c-101.46,0-184-82.54-184-184S106.54,24,208,24s184,82.54,184,184c0,19.91-3.19,39.1-9.07,57.07,8.08,1.16,15.87,3.25,23.24,6.16,6.38-19.95,9.84-41.19,9.84-63.23C416,93.31,322.69,0,208,0S0,93.31,0,208s93.31,208,208,208c22.04,0,43.28-3.46,63.23-9.84-2.91-7.37-4.99-15.15-6.16-23.24-17.98,5.88-37.16,9.07-57.07,9.07Z"/>
</svg>